<svg height="478" width="720" xmlns="http://www.w3.org/2000/svg">
<rect height="478" fill="#555" width="720"></rect>
<text fill="#7f7" font-family="Courier New" font-size="12" xml:space="preserve">
<tspan x="10" y="26">1 megabytes</tspan>
<tspan x="10" y="42">└─┬ mississippi@1.3.0 </tspan>
<tspan x="10" y="58">  ├─┬ concat-stream@1.6.0 </tspan>
<tspan x="10" y="74">  │ ├── inherits@2.0.3 </tspan>
<tspan x="10" y="90">  │ ├─┬ readable-stream@2.2.6 </tspan>
<tspan x="10" y="106">  │ │ ├── buffer-shims@1.0.0 </tspan>
<tspan x="10" y="122">  │ │ ├── core-util-is@1.0.2 </tspan>
<tspan x="10" y="138">  │ │ ├── isarray@1.0.0 </tspan>
<tspan x="10" y="154">  │ │ ├── process-nextick-args@1.0.7 </tspan>
<tspan x="10" y="170">  │ │ ├── string_decoder@0.10.31 </tspan>
<tspan x="10" y="186">  │ │ └── util-deprecate@1.0.2 </tspan>
<tspan x="10" y="202">  │ └── typedarray@0.0.6 </tspan>
<tspan x="10" y="218">  ├─┬ duplexify@3.5.0 </tspan>
<tspan x="10" y="234">  │ ├── end-of-stream@1.0.0 </tspan>
<tspan x="10" y="250">  │ └── stream-shift@1.0.0 </tspan>
<tspan x="10" y="266">  ├─┬ end-of-stream@1.4.0 </tspan>
<tspan x="10" y="282">  │ └─┬ once@1.4.0 </tspan>
<tspan x="10" y="298">  │   └── wrappy@1.0.2 </tspan>
<tspan x="10" y="314">  ├── flush-write-stream@1.0.2 </tspan>
<tspan x="10" y="330">  ├── from2@2.3.0 </tspan>
<tspan x="10" y="346">  ├─┬ parallel-transform@1.1.0 </tspan>
<tspan x="10" y="362">  │ └── cyclist@0.2.2 </tspan>
<tspan x="10" y="378">  ├─┬ pump@1.0.2 </tspan>
<tspan x="10" y="394">  │ └── once@1.3.3 </tspan>
<tspan x="10" y="410">  ├── pumpify@1.3.5 </tspan>
<tspan x="10" y="426">  ├── stream-each@1.2.0 </tspan>
<tspan x="10" y="442">  └─┬ through2@2.0.3 </tspan>
<tspan x="10" y="458">    └── xtend@4.0.1</tspan>
</text>
</svg>
